<?xml version="1.0" encoding="utf-8"?>
<!-- Generator: Adobe Illustrator 23.0.1, SVG Export Plug-In . SVG Version: 6.00 Build 0)  -->
<svg version="1.1" xmlns="http://www.w3.org/2000/svg" xmlns:xlink="http://www.w3.org/1999/xlink" x="0px" y="0px"
	 viewBox="0 0 258.679 275.4092" style="enable-background:new 0 0 258.679 275.4092;" xml:space="preserve">
<style type="text/css">
	.Drop_x0020_Shadow{fill:none;}
	.Round_x0020_Corners_x0020_2_x0020_pt{fill:#FFFFFF;stroke:#231F20;stroke-miterlimit:10;}
	.Live_x0020_Reflect_x0020_X{fill:none;}
	.Bevel_x0020_Soft{fill:url(#SVGID_1_);}
	.Dusk{fill:#FFFFFF;}
	.Foliage_GS{fill:#FFDD00;}
	.Pompadour_GS{fill-rule:evenodd;clip-rule:evenodd;fill:#44ADE2;}
	.st0{fill:#008C74;}
	.st1{fill:#15FFAB;}
	.st2{fill:#005B4A;}
	.st3{fill:#13D87E;}
	.st4{fill:none;stroke:#2F106B;stroke-width:8;stroke-miterlimit:10;}
	.st5{fill:#2F106B;}
	.st6{fill:none;stroke:#2F106B;stroke-width:12;stroke-miterlimit:10;}
	.st7{fill:#FFFFFF;}
	.st8{opacity:0.33;fill:#FFFFFF;}
</style>
<linearGradient id="SVGID_1_" gradientUnits="userSpaceOnUse" x1="-170.8526" y1="-166.9987" x2="-170.1454" y2="-166.2916">
	<stop  offset="0" style="stop-color:#DEDFE3"/>
	<stop  offset="0.1783" style="stop-color:#DADBDF"/>
	<stop  offset="0.3611" style="stop-color:#CECFD3"/>
	<stop  offset="0.546" style="stop-color:#B9BCBF"/>
	<stop  offset="0.7324" style="stop-color:#9CA0A2"/>
	<stop  offset="0.9181" style="stop-color:#787D7E"/>
	<stop  offset="1" style="stop-color:#656B6C"/>
</linearGradient>
<g id="Layer_1">
</g>
<g id="Layer_3">
</g>
<g id="Layer_2">
	<g>
		<circle class="st3" cx="132.9193" cy="109.5124" r="77.2126"/>
		<path class="st0" d="M191.1933,56.9247c11.0911,12.2849,17.8479,28.5584,17.8479,46.4125c0,38.267-31.4978,75.307-69.2886,69.2885
			c-40.8428-6.5046-69.2885-31.0215-69.2885-69.2885c0-38.267,31.0215-69.2885,69.2885-69.2885
			c12.959,0,25.081,3.5669,35.4547,9.7587c-11.9312-7.3901-25.9933-11.667-41.0594-11.667
			c-43.1331,0-78.0994,34.9663-78.0994,78.0994c0,43.1332,34.9663,78.0995,78.0994,78.0995
			c43.1332,0,78.0995-34.9663,78.0995-78.0995C212.2475,89.6223,204.2449,70.8834,191.1933,56.9247z"/>
		<g>
			<path class="st0" d="M160.0545,173.6263c-50.5967,0-108.2075-55.7271-110.6533-58.1172l7.6875-7.8682
				c0.5669,0.5537,56.8608,54.9854,102.9541,54.9854c0.332,0,0.6592-0.0029,0.9893-0.0088
				c13.0811-0.2236,23.7275-4.8154,32.5488-14.0361l7.9492,7.6035c-10.8076,11.2979-24.376,17.1631-40.3271,17.4316
				C160.8211,173.6224,160.4373,173.6263,160.0545,173.6263z"/>
		</g>
		<ellipse class="st0" cx="178.4403" cy="61.8297" rx="25.4995" ry="24.9724"/>
		<path class="st1" d="M117.7042,37.9398c0,0,74.4073,2.6962,90.3375,83.2911l4.9737-8.6225l-1.9565-17.6087l-3.5217-13.3044
			l-5.8696-12.1304l-24.2609-18.7826l-6.6522-8.2174l-15.6522-9l-18-1.5652"/>
		<circle class="st4" cx="132.7925" cy="111.8575" r="78.8664"/>
		<circle class="st5" cx="185.1602" cy="53.4658" r="29.7336"/>
		<g>
			<path class="st5" d="M211.4257,124.222c-1.046,5.1097-2.6716,10.1234-2.7877,15.3724c7.0917,9.5693,9.7672,17.999,7.1022,23.673
				c-4.5093,9.6025-24.8066,12.4092-51.708,7.1504l-2.3018,11.7773c9.8184,1.9189,18.7725,2.8633,26.7188,2.8633
				c19.5557,0,33.001-5.7188,38.1533-16.6895C232.1611,156.5313,226.6372,140.8432,211.4257,124.222z"/>
		</g>
		<g>
			<path class="st5" d="M33.8921,77.867c3.298-7.0236,15.3176-10.4326,32.1547-9.6243c3.9821-2.6077,5.2916-7.7007,8.1883-11.3976
				c-26.5958-2.8891-45.0082,2.7261-51.2053,15.9214c-7.4648,15.8965,4.5132,37.9189,32.8628,60.4209l7.46-9.3984
				C40.7725,105.866,29.2085,87.8406,33.8921,77.867z"/>
		</g>
		<path class="st6" d="M162.8815,176.3065c-16.9148-3.3067-36.0323-9.5892-55.4549-18.7105
			c-18.4614-8.6699-34.7731-18.7655-47.8038-29.1081"/>
		<g>
			<path class="st7" d="M192.6348,52.747c0.9331,0,1.7417,0.3421,2.426,1.0264c0.6532,0.6532,0.9797,1.4618,0.9797,2.426
				c0,2.3016,0,5.7384,0,10.3105c0,0.9642-0.3266,1.7728-0.9797,2.426c-0.6843,0.6843-1.4929,1.0264-2.426,1.0264
				c-3.0791,0-7.6668,0-13.7628,0c-0.9642,0-1.7728-0.3421-2.426-1.0264c-0.6842-0.6532-1.0264-1.4618-1.0264-2.426
				c0-0.6532,0-1.4774,0-2.4726c0-1.0264,0-2.2083,0-3.5457c1.524,0,3.8101,0,6.8581,0c0,0.5909,0,1.4618,0,2.6126
				c1.5551,0,3.8567,0,6.9048,0c0-1.5551,0-3.8567,0-6.9048c-1.524,0-3.8256,0-6.9048,0c0-1.524,0-3.8101,0-6.8581
				c1.5551,0,3.8567,0,6.9048,0c0-1.5551,0-3.8567,0-6.9048c-1.524,0-3.8256,0-6.9048,0c0,0.5909,0,1.4463,0,2.566
				c-1.524,0-3.8101,0-6.8581,0c0-1.3374,0-3.3435,0-6.0183c0-0.9331,0.3421-1.7417,1.0264-2.426
				c0.6532-0.6532,1.4618-0.9797,2.426-0.9797c3.048,0,7.6357,0,13.7628,0c0.9331,0,1.7417,0.3266,2.426,0.9797
				c0.6532,0.6843,0.9797,1.4929,0.9797,2.426c0,2.3016,0,5.754,0,10.3571c0,0.9331-0.3266,1.7417-0.9797,2.426
				C194.3765,52.4204,193.5679,52.747,192.6348,52.747z"/>
		</g>
		<path class="st8" d="M185.3091,28.4863c-7.2665,0-13.7752,3.2274-18.1849,8.3217c3.8484-2.6148,8.4941-4.1438,13.4975-4.1438
			c3.7377,0,7.2762,0.8528,10.4316,2.3743c-2.7689,2.3554-2.4056,7.8556,0.921,12.5718c3.4495,4.8904,8.7687,7.0753,11.8807,4.8802
			c0.1365-0.0963,0.2582-0.2077,0.3816-0.3172c0.2811,1.4707,0.4338,2.987,0.4338,4.5397c0,6.0152-2.2135,11.51-5.8638,15.727
			c6.3675-4.3262,10.5513-11.6265,10.5513-19.9049C209.3579,39.2533,198.5909,28.4863,185.3091,28.4863z"/>
		<path class="st0" d="M63.5036,122.7421c6.9421,3.3929,14.2985,7.3763,19.0373,13.614c0.2275-0.1416,0.4506-0.2905,0.6558-0.467
			c3.9149-3.3685,2.1187-11.8754-4.0121-19.0007c-6.1308-7.1253-14.2744-10.1708-18.1893-6.8024
			c-2.5333,2.1797-2.6623,6.5134-0.7857,11.2298C61.3119,121.7288,62.4071,122.2061,63.5036,122.7421z"/>
		
			<ellipse transform="matrix(0.9903 -0.1388 0.1388 0.9903 -20.5599 24.7777)" class="st0" cx="167.368" cy="159.7961" rx="18.9265" ry="8.2007"/>
		
			<ellipse transform="matrix(0.7695 -0.6386 0.6386 0.7695 -19.6759 83.434)" class="st0" cx="105.761" cy="68.9782" rx="16.9647" ry="9.321"/>
		
			<ellipse transform="matrix(0.8346 -0.5509 0.5509 0.8346 -45.3144 123.7043)" class="st0" cx="183.3061" cy="137.299" rx="9.4218" ry="5.1767"/>
		
			<ellipse transform="matrix(0.4053 -0.9142 0.9142 0.4053 -65.1249 205.7023)" class="st0" cx="125.5344" cy="152.9043" rx="4.8679" ry="10.418"/>
	</g>
	<g>
		<g>
			<path class="st3" d="M188.5995,210.9957c0.5182,0,0.9675,0.1906,1.3479,0.5706c0.3632,0.3628,0.5448,0.8128,0.5448,1.3483
				c0,1.2794,0,3.1893,0,5.7304c0,0.5361-0.1816,0.9854-0.5448,1.3483c-0.3804,0.3808-0.8297,0.5706-1.3479,0.5706
				c-1.7118,0-4.2612,0-7.6496,0c-0.5354,0-0.9847-0.1898-1.3479-0.5706c-0.3804-0.3628-0.5706-0.8121-0.5706-1.3483
				c0-0.3628,0-0.8207,0-1.3741c0-0.5706,0-1.2273,0-1.9709c0.8469,0,2.1173,0,3.8119,0c0,0.3287,0,0.8128,0,1.4523
				c0.8642,0,2.1432,0,3.837,0c0-0.8642,0-2.1435,0-3.8377c-0.8469,0-2.1259,0-3.837,0c0-0.8466,0-2.1173,0-3.8115
				c0.8642,0,2.1432,0,3.837,0c0-0.8642,0-2.1431,0-3.8377c-0.8469,0-2.1259,0-3.837,0c0,0.3287,0,0.8039,0,1.4261
				c-0.8476,0-2.118,0-3.8119,0c0-0.7429,0-1.8578,0-3.345c0-0.5186,0.1902-0.9679,0.5706-1.3483
				c0.3632-0.3628,0.8125-0.5444,1.3479-0.5444c1.6938,0,4.2439,0,7.6496,0c0.5182,0,0.9675,0.1816,1.3479,0.5444
				c0.3632,0.3804,0.5448,0.8297,0.5448,1.3483c0,1.2797,0,3.1986,0,5.7566c0,0.5186-0.1816,0.9682-0.5448,1.3483
				C189.567,210.8144,189.1177,210.9957,188.5995,210.9957z"/>
		</g>
		<g>
			<path class="st5" d="M104.9146,233.1972l-3.2029-13.4202l-3.1575,13.4202c-0.9756,4.3184-1.5353,5.6646-5.8082,5.6646h-0.6466
				c-4.2276,0-4.7835-1.3462-5.7591-5.6646l-3.9478-22.8473h6.1297l3.8532,22.7074h0.1399l6.1297-22.7074h6.1788l6.1297,22.7074
				h0.1399l3.8533-22.7074h6.1297l-3.9478,22.8473c-0.9756,4.3184-1.5315,5.6646-5.7591,5.6646h-0.6504
				C106.446,238.8617,105.8902,237.5155,104.9146,233.1972z"/>
			<path class="st5" d="M124.6271,210.2554h21.3158v6.0389h-14.721v4.3184h13.0043v6.0351h-13.0043v6.1788h14.721v6.0351h-21.3158
				V210.2554z"/>
			<path class="st5" d="M169.5502,238.8617h-18.4835v-28.6064h17.5533c4.7835,0,6.2242,1.3008,6.2242,6.4549v3.3919
				c-0.0491,1.9474-0.8848,3.7587-2.3709,4.1785c1.8605,0.4651,3.2974,2.4617,3.2974,4.8289v4.0423
				C175.6307,237.7008,174.0992,238.8617,169.5502,238.8617z M157.7975,216.2943v4.9196h10.5426v-4.9196H157.7975z
				 M157.8467,227.2528v5.5738h11.3783v-5.5738H157.8467z"/>
		</g>
	</g>
	<path class="st7" d="M139.8926,129.7083l-5.3012-22.2123l-5.226,22.2123c-1.6148,7.1475-2.541,9.3756-9.6134,9.3756h-1.0702
		c-6.9973,0-7.9173-2.2281-9.5321-9.3756l-6.5341-37.8153h10.1454l6.3777,37.5837h0.2316l10.1454-37.5837h10.2268l10.1454,37.5837
		h0.2316l6.3777-37.5837h10.1454l-6.5341,37.8153c-1.6148,7.1475-2.5348,9.3756-9.5321,9.3756h-1.0765
		C142.4274,139.0839,141.5073,136.8558,139.8926,129.7083z"/>
	<g>
		<path class="st3" d="M87.8778,256.6792c0-1.2774,0-2.88,0-4.8078s0-4.1749,0-6.7414c0.569,0,1.4226,0,2.5607,0
			c0,2.2762,0,5.702,0,10.2775c0.5807,0,1.44,0,2.5781,0c0-2.2878,0-5.7136,0-10.2775c0.569,0,1.4226,0,2.5607,0
			c0,2.2762,0,5.702,0,10.2775c0.5807,0,1.44,0,2.5781,0c0-2.2878,0-5.7136,0-10.2775c0.569,0,1.4226,0,2.5607,0
			c0,2.5665,0,6.4162,0,11.5491c0,0.36-0.1219,0.662-0.3658,0.9058c-0.2555,0.2555-0.5574,0.3832-0.9058,0.3832
			c-0.8594,0-2.1484,0-3.8671,0c-0.3484,0-0.6503-0.1277-0.9058-0.3832c-0.2439-0.2439-0.3658-0.5458-0.3658-0.9058
			c0,0.36-0.1277,0.662-0.3832,0.9058c-0.2439,0.2555-0.5458,0.3832-0.9058,0.3832c-0.8594,0-2.1426,0-3.8497,0
			c-0.36,0-0.6619-0.1277-0.9058-0.3832C88.0055,257.3412,87.8778,257.0392,87.8778,256.6792z"/>
		<path class="st3" d="M118.8417,246.4017c0,2.2878,0,5.7136,0,10.2775c0,0.36-0.1219,0.662-0.3658,0.9058
			c-0.2555,0.2555-0.5574,0.3832-0.9058,0.3832c-1.1497,0-2.8626,0-5.1388,0c-0.36,0-0.6619-0.1277-0.9058-0.3832
			c-0.2555-0.2439-0.3832-0.5458-0.3832-0.9058c0-0.8594,0-2.1484,0-3.8671c0-0.7084,0-1.591,0-2.6478c0-1.08,0-2.3342,0-3.7626
			c0-0.3484,0.1277-0.6503,0.3832-0.9058c0.2439-0.2439,0.5458-0.3658,0.9058-0.3658c1.1381,0,2.851,0,5.1388,0
			c0.3484,0,0.6503,0.1219,0.9058,0.3658C118.7198,245.7514,118.8417,246.0533,118.8417,246.4017z M113.7029,255.4076
			c0.5807,0,1.44,0,2.5781,0c0-0.1161,0-0.2845,0-0.5052c0-1.6026,0-4.0065,0-7.2117c-0.569,0-1.4284,0-2.5781,0
			c0,0.8594,0,2.1426,0,3.8497C113.7029,252.3998,113.7029,253.6889,113.7029,255.4076z"/>
		<path class="st3" d="M135.6966,251.5405c0.3484,0,0.6503,0.1277,0.9058,0.3832c0.2439,0.2439,0.3658,0.5458,0.3658,0.9058
			c0,1.1381,0,2.851,0,5.1388c-0.569,0-1.4226,0-2.5607,0c0-1.1381,0-2.851,0-5.1388c-0.569,0-1.4284,0-2.5781,0
			c0,1.1381,0,2.851,0,5.1388c-0.569,0-1.4226,0-2.5607,0c0-1.1381,0-2.851,0-5.1388c0-0.569,0-1.4226,0-2.5607
			c0-0.569,0-1.2832,0-2.1426c0-0.8594,0-1.8581,0-2.9962c0.569,0,1.4226,0,2.5607,0c0.8594,0,2.1484,0,3.8671,0
			c0.3484,0,0.6503,0.1219,0.9058,0.3658c0.2439,0.2555,0.3658,0.5574,0.3658,0.9058c0,0.8594,0,2.1484,0,3.8671
			c0,0.3484-0.1219,0.6503-0.3658,0.9058C136.3469,251.4185,136.045,251.5405,135.6966,251.5405z M134.4075,250.2688
			c0-0.1045,0-0.2555,0-0.4529c0-0.4761,0-1.1845,0-2.1252c-0.569,0-1.4284,0-2.5781,0c0,0.569,0,1.4284,0,2.5781
			C132.4101,250.2688,133.2694,250.2688,134.4075,250.2688z"/>
		<path class="st3" d="M155.0947,255.4076c0,1.2774,0,2.131,0,2.5607c-2.5665,0-4.2794,0-5.1388,0c-0.9523,0-1.591,0-1.9162,0
			s-0.54,0-0.6445,0c0-3.2168,0-5.8936,0-8.0304s0-3.7394,0-4.8078c1.289,0,2.1426,0,2.5607,0c0,5.1329,0,8.5588,0,10.2775
			C152.2437,255.4076,153.9566,255.4076,155.0947,255.4076z"/>
		<path class="st3" d="M173.2197,246.4017c0,2.2878,0,5.7136,0,10.2775c0,0.36-0.1219,0.662-0.3658,0.9058
			c-0.2555,0.2555-0.5574,0.3832-0.9058,0.3832c-0.8594,0-2.1484,0-3.8671,0c-0.2787,0-0.7026,0-1.2716,0c-0.2903,0-0.72,0-1.289,0
			c0-1.4284,0-3.211,0-5.3478s0-4.6336,0-7.4904c0.4994,0,1.2484,0,2.2471,0c0.0697,0,0.1742,0,0.3136,0c0.8594,0,2.1484,0,3.8671,0
			c0.3484,0,0.6503,0.1219,0.9058,0.3658C173.0977,245.7514,173.2197,246.0533,173.2197,246.4017z M168.0809,255.4076
			c0.5807,0,1.44,0,2.5781,0c0-0.1161,0-0.2845,0-0.5052c0-1.6026,0-4.0065,0-7.2117c-0.569,0-1.4284,0-2.5781,0
			c0,0.8594,0,2.1426,0,3.8497C168.0809,252.3998,168.0809,253.6889,168.0809,255.4076z"/>
	</g>
</g>
</svg>
