<svg width="217" height="108" fill="none" xmlns="http://www.w3.org/2000/svg"><g clip-path="url(#a)" fill="#010101"><path d="M48.88 54.097c.16.059.295.106.428.157.881.343 1.658.84 2.296 1.545a5.204 5.204 0 0 1 1.264 2.574c.153.805.166 1.614.03 2.42-.233 1.393-.929 2.504-2.067 3.34-.653.48-1.378.82-2.146 1.07-.68.221-1.376.367-2.084.464-.903.123-1.81.17-2.72.17H32.562c-.316 0-.276.046-.276-.272V43.541c0-.322-.035-.28.27-.28h10.688c.601 0 1.202.022 1.8.08.998.096 1.977.277 2.92.626.81.3 1.554.713 2.203 1.289.848.754 1.392 1.684 1.597 2.803.095.52.119 1.043.076 1.57a5.547 5.547 0 0 1-.347 1.579c-.45 1.153-1.216 2.042-2.27 2.686-.101.063-.205.122-.342.202Zm-7.861 7.805c.856 0 1.713.005 2.57-.001.654-.005 1.305-.048 1.944-.207.425-.106.831-.257 1.196-.504.468-.317.771-.75.908-1.298.105-.42.115-.846.05-1.274-.113-.747-.502-1.305-1.15-1.687a3.655 3.655 0 0 0-.936-.378 7.599 7.599 0 0 0-1.94-.227h-5.974c-.225 0-.207-.02-.207.204v5.16c0 .233-.014.213.226.213h3.313Zm-.493-9.384c.594 0 1.187.003 1.78 0 .332-.002.662-.01.992-.023a5.66 5.66 0 0 0 1.244-.19 3.37 3.37 0 0 0 1.121-.509c.404-.29.688-.67.827-1.148.14-.485.149-.978.035-1.47a2.096 2.096 0 0 0-.94-1.325c-.395-.257-.833-.405-1.292-.502a7.637 7.637 0 0 0-1.59-.146h-5.139c-.053 0-.084.022-.083.08v4.957c0 .068-.002.136 0 .203.002.042.025.07.07.07l.18.003h2.795ZM112.619 48.487c-.02.08-.072.113-.111.153-.721.736-1.443 1.47-2.164 2.204l-4.757 4.84c-.181.185-.165.14-.023.32l6.65 8.449.961 1.222a.743.743 0 0 1 .076.11c.005.01-.014.044-.026.047-.036.007-.074.005-.112.005-1.916 0-3.833-.002-5.75.004-.134 0-.204-.058-.277-.149l-2.898-3.599-2.306-2.86c-.047-.059-.096-.115-.152-.181-.043.034-.086.062-.122.098-.723.711-1.444 1.425-2.17 2.134a.398.398 0 0 0-.13.314c.004 1.323.003 2.645.002 3.968 0 .314.037.27-.28.27-1.502.002-3.006.002-4.51 0-.282 0-.248.033-.248-.253V42.158c0-.277-.032-.25.255-.25h4.533c.28 0 .25-.023.25.257V55.15c0 .08.004.16.007.257.077-.025.112-.075.152-.114 1.753-1.658 3.504-3.318 5.255-4.977.606-.574 1.213-1.146 1.815-1.723a.369.369 0 0 1 .278-.112c1.894.003 3.788.002 5.682.002.035 0 .07.002.119.004l.001-.001ZM180.294 50.827v-8.224c0-.068-.001-.136.001-.203.002-.087.015-.098.109-.101.045-.002.09 0 .135 0h3.946c.06 0 .12-.002.18.004.016.002.036.025.043.042.008.02.006.044.006.067v23.287c0 .347.05.297-.296.298-1.029.002-2.059 0-3.089 0-.03 0-.06-.003-.09.001-.119.018-.19-.027-.251-.137-.181-.329-.376-.65-.566-.973-.038-.064-.078-.127-.125-.203-.072.039-.137.072-.201.11-.637.366-1.277.73-1.91 1.103a.715.715 0 0 1-.383.101 834.26 834.26 0 0 0-3.81 0c-.14 0-.26-.03-.383-.1-1.122-.654-2.248-1.3-3.372-1.951-.231-.134-.192-.066-.192-.325v-11.7c0-.26-.037-.19.195-.325.681-.397 1.364-.789 2.047-1.183.448-.258.898-.515 1.345-.777a.558.558 0 0 1 .295-.086c1.315.003 2.631.003 3.946 0 .102 0 .188.027.275.078.649.377 1.299.752 1.95 1.125.056.032.105.09.195.071Zm-.008 2.523c-.087-.042-.171-.023-.252-.023-1.773-.002-3.546-.002-5.319-.001-.29 0-.252-.027-.252.252-.001 2.794 0 5.588 0 8.382v.158c.003.094.013.105.102.108.06.002.12 0 .18 0h5.342c.052 0 .105.002.157-.004.016-.002.039-.028.041-.045.008-.051.009-.104.009-.156v-8.495c0-.06-.005-.119-.008-.175ZM75.614 57.77v5.817c0 .306.037.227-.223.378-1.116.647-2.236 1.29-3.352 1.94a.686.686 0 0 1-.361.095c-2.157-.003-4.315-.003-6.472 0a.726.726 0 0 1-.381-.104c-1.123-.653-2.249-1.3-3.372-1.95-.23-.133-.19-.071-.19-.328-.002-3.893-.002-7.785 0-11.678 0-.27-.037-.206.202-.344 1.117-.648 2.236-1.292 3.353-1.939.12-.07.24-.105.38-.105 2.158.004 4.315.004 6.472.001.14 0 .26.027.383.098 1.122.653 2.248 1.301 3.372 1.95.02.011.038.026.058.034.105.042.146.118.132.23-.006.05 0 .104 0 .157v5.749Zm-9.934-4.436v8.677c0 .23-.019.215.222.215h5.073c.226 0 .219.024.219-.219v-8.454c0-.052 0-.105-.003-.157-.003-.043-.03-.067-.074-.068a3.815 3.815 0 0 0-.135-.002h-5.096c-.06 0-.118.004-.207.008ZM90.192 59.58l3.897 2.125c-.03.065-.052.12-.077.172-.608 1.262-1.53 2.235-2.727 2.953a8.568 8.568 0 0 1-2.784 1.058c-.942.184-1.892.237-2.85.187-.965-.05-1.91-.206-2.829-.507-1.429-.467-2.7-1.201-3.756-2.28a8.242 8.242 0 0 1-2.213-4.109 9.7 9.7 0 0 1-.181-2.756 8.563 8.563 0 0 1 .76-3.019c.786-1.69 2.009-2.975 3.632-3.883a9.956 9.956 0 0 1 3.059-1.095 12.177 12.177 0 0 1 3.075-.166c1.217.083 2.388.358 3.49.894 1.102.536 2.03 1.28 2.733 2.29.233.334.433.686.604 1.055.022.046.039.095.057.14-.235.154-3.733 2.027-3.9 2.087l-.154-.246a4.842 4.842 0 0 0-1.167-1.302 4.002 4.002 0 0 0-1.986-.783c-.736-.086-1.461-.038-2.158.208-1.407.495-2.334 1.465-2.757 2.9-.203.69-.252 1.4-.202 2.12.035.504.12.998.289 1.476a4.267 4.267 0 0 0 3.278 2.779c.696.122 1.389.12 2.08-.042a3.927 3.927 0 0 0 1.884-1.049 5.15 5.15 0 0 0 .775-.993l.129-.214h-.001ZM58.897 53.867v11.678c0 .338.042.29-.281.291-1.504.002-3.007.001-4.51 0-.282 0-.247.032-.247-.256V42.156c0-.276-.03-.248.257-.248h4.532c.28 0 .249-.023.25.258v11.7ZM163.049 54.541l.001-11c0-.322-.039-.28.269-.28h3.968c.068 0 .136 0 .203.002.044.001.07.026.072.069.003.052.001.105.001.157v22.114c0 .053.001.106-.001.158-.001.042-.02.071-.066.073a3.2 3.2 0 0 1-.135.002h-4.103l-.136-.001c-.044 0-.069-.024-.07-.068-.003-.067-.003-.135-.003-.203V54.541Z"/><path d="M127.928 53.455v-.268c0-3.66-.001-7.32.001-10.98 0-.343-.048-.296.296-.3.226-.001.451 0 .677.002.076 0 .092.018.095.092.003.06.001.12.001.18v23.381c0 .316.041.272-.274.274-.226.002-.451 0-.677 0-.054 0-.084-.024-.084-.08v-4.373c-.059-.018-.064.031-.077.058-.111.213-.209.433-.328.641-1.095 1.907-2.722 3.107-4.852 3.628-.921.225-1.855.268-2.798.184a7.914 7.914 0 0 1-3.95-1.442c-1.366-.969-2.305-2.264-2.881-3.828a8.471 8.471 0 0 1-.458-1.97 10.306 10.306 0 0 1-.034-2.092c.174-1.974.893-3.712 2.267-5.155 1.069-1.123 2.373-1.847 3.879-2.208a8.624 8.624 0 0 1 2.462-.218c1.799.091 3.399.697 4.771 1.876a7.365 7.365 0 0 1 1.815 2.387l.105.218.044-.007Zm-7.159 11.508c.395.002.863-.037 1.301-.108a6.713 6.713 0 0 0 2.943-1.226c1.25-.915 2.073-2.135 2.542-3.6.271-.845.375-1.714.373-2.599-.001-.87-.105-1.724-.375-2.553-.561-1.726-1.602-3.076-3.185-3.988-.899-.517-1.871-.799-2.904-.886a7.713 7.713 0 0 0-2.309.138c-1.766.385-3.175 1.316-4.212 2.796-.851 1.216-1.249 2.585-1.317 4.057a9.374 9.374 0 0 0 .075 1.731c.092.658.251 1.297.508 1.91.675 1.605 1.767 2.829 3.336 3.607 1.015.503 2.096.72 3.224.72ZM145.481 62.499c.16.128.577.568.671.71-.053.06-.106.122-.162.183-1.006 1.096-2.239 1.824-3.667 2.224-1.053.295-2.126.37-3.215.283a8.497 8.497 0 0 1-2.199-.45c-2.557-.917-4.231-2.69-5.061-5.266a8.313 8.313 0 0 1-.375-2.214c-.024-.58-.013-1.157.052-1.733.194-1.713.786-3.265 1.902-4.592 1.101-1.31 2.503-2.131 4.174-2.496a8.195 8.195 0 0 1 2.263-.162c2.782.172 5.063 1.732 6.295 4.063.454.858.748 1.766.892 2.725.081.544.119 1.09.118 1.64 0 .045 0 .09-.003.134-.003.045-.032.065-.074.069-.022.002-.045.002-.067.002h-14.227c-.068 0-.135-.002-.203 0-.085.004-.1.02-.097.112.058 1.944.682 3.663 2.049 5.076.926.958 2.056 1.573 3.341 1.906a8.357 8.357 0 0 0 2.548.234 7.641 7.641 0 0 0 2.723-.64 5.867 5.867 0 0 0 2.205-1.673c.038-.046.078-.09.117-.135Zm.674-5.76a6.783 6.783 0 0 0-.097-.879 7.406 7.406 0 0 0-1.221-3.047c-1.155-1.662-2.74-2.615-4.755-2.835a7.124 7.124 0 0 0-2.021.072 6.381 6.381 0 0 0-3.415 1.745c-.841.819-1.41 1.806-1.765 2.92a7.936 7.936 0 0 0-.339 1.788c-.021.257-.049.235.202.235H146.156h-.001ZM162.624 49.104c-.04.096-.067.165-.097.231l-1.43 3.134c-1.995 4.369-3.99 8.738-5.987 13.106-.146.318-.052.256-.408.261-.203.003-.406-.006-.609.004-.122.005-.188-.03-.239-.147-.154-.359-.321-.711-.483-1.066a90911.14 90911.14 0 0 1-6.976-15.278c-.033-.073-.088-.14-.075-.245h.945c.212 0 .175-.015.262.175.216.47.427.943.64 1.415l6.197 13.703.09.19c.08-.022.086-.098.11-.152.395-.867.787-1.736 1.18-2.604 1.886-4.171 3.772-8.342 5.66-12.513.113-.25.042-.212.324-.214.285-.002.571 0 .896 0Z"/></g><defs><clipPath id="a"><path fill="#fff" transform="translate(32.284 41.907)" d="M0 0h152.431v24.186H0z"/></clipPath></defs></svg>