<svg width="217" height="108" fill="none" xmlns="http://www.w3.org/2000/svg"><g clip-path="url(#a)"><mask id="b" style="mask-type:luminance" maskUnits="userSpaceOnUse" x="23" y="36" width="171" height="36"><path d="M193.834 36.34H23.166v35.32h170.668V36.34Z" fill="#fff"/></mask><g mask="url(#b)"><path fill-rule="evenodd" clip-rule="evenodd" d="M54.874 36.554a5.143 5.143 0 0 1-.637-.195H53.01c-1.2.305-2.147 1.034-3.111 1.778l-.103.079a4.213 4.213 0 0 1-5.32-.016 8.564 8.564 0 0 0-3.137-1.842h-1.212c-1.289.302-2.288 1.07-3.305 1.858a4.218 4.218 0 0 1-5.365-.061 7.933 7.933 0 0 0-3.153-1.797h-1.212c-.288.106-.591.211-.894.317a4.493 4.493 0 0 0-2.835 3.066c-.06.181-.136.362-.197.542v1.208a7.121 7.121 0 0 0 1.865 3.172 4.08 4.08 0 0 1 .03 5.393 7.847 7.847 0 0 0-1.88 3.186v1.208a7.777 7.777 0 0 0 1.88 3.187 4.088 4.088 0 0 1 .015 5.331 7.725 7.725 0 0 0-1.895 3.261v1.21c.122.288.228.59.334.891a4.495 4.495 0 0 0 3.061 2.84c.181.06.363.135.544.194h1.217a7.822 7.822 0 0 0 3.198-1.873 4.117 4.117 0 0 1 5.41.015 7.842 7.842 0 0 0 3.213 1.858h1.21a9.32 9.32 0 0 0 .375-.137c.15-.058.302-.116.459-.165a4.508 4.508 0 0 0-1.304-8.775 4.576 4.576 0 0 0-3.38 1.27c-1.288 1.192-2.774 1.751-4.516 1.252a4.608 4.608 0 0 1-2.168-7.611 4.809 4.809 0 0 0 1.394-3.987c-.128-1.154-.81-1.996-1.496-2.85l-.125-.155c-2.517-3.126-.152-6.75 2.561-7.416 1.667-.407 3.062.106 4.275 1.284 1.849 1.782 4.637 1.918 6.335.136a4.58 4.58 0 0 1 6.82.015 4.37 4.37 0 0 0 5.062.77 4.541 4.541 0 0 0-.786-8.44ZM53.692 65.37a1.557 1.557 0 1 0-.03 3.11 1.558 1.558 0 1 0 .03-3.11Zm-1.577-11.161a1.494 1.494 0 0 1 1.592-1.525 1.558 1.558 0 0 1 1.532 1.54 1.63 1.63 0 0 1-1.592 1.584 1.57 1.57 0 0 1-1.532-1.601m-11.428 1.694a1.518 1.518 0 0 0 1.561-1.558 1.487 1.487 0 0 0-1.561-1.552 1.578 1.578 0 0 0-1.561 1.509 1.595 1.595 0 0 0 1.56 1.6Z" fill="#F8BF1E"/><path d="M74.394 57.973c2.962 0 5.103-.808 6.716-2.336a8.079 8.079 0 0 0 2.522-5.28h-5.191c-.234 1.991-1.76 3.434-4.077 3.434-3.109 0-5.044-2.741-5.044-6.521 0-3.752 1.613-6.55 5.015-6.55 2.23 0 3.696 1.413 3.96 3.26h5.19a8.06 8.06 0 0 0-3.138-5.685 9.864 9.864 0 0 0-5.982-1.821c-6.248 0-10.324 4.646-10.324 10.793 0 6.175 4.194 10.706 10.353 10.706Zm18.416-3.348c-2.082 0-3.168-1.789-3.168-4.472 0-2.684 1.086-4.502 3.168-4.502s3.197 1.818 3.197 4.502c0 2.684-1.115 4.472-3.197 4.472Zm.03 3.348c4.838 0 8.006-3.376 8.006-7.82 0-4.444-3.17-7.821-8.007-7.821-4.81 0-8.036 3.377-8.036 7.82 0 4.445 3.226 7.821 8.036 7.821Zm38.866-4.761V41.149h3.109c3.256 0 5.103 2.424 5.103 6.176 0 3.78-1.76 5.889-5.162 5.889l-3.05-.002Zm-4.758 4.3h8.622c2.64 0 4.752-.664 6.394-1.876 2.346-1.76 3.637-4.675 3.637-8.311 0-6.32-3.901-10.447-9.708-10.447h-8.945V57.51Zm27.718.432a8.034 8.034 0 0 0 4.693-1.357 6.019 6.019 0 0 0 2.522-3.492h-4.663a2.501 2.501 0 0 1-2.493 1.472c-1.965 0-3.08-1.241-3.373-3.232h10.793c.029-3.001-.85-5.57-2.64-7.186a7.451 7.451 0 0 0-5.13-1.846c-4.575 0-7.713 3.377-7.713 7.792 0 4.473 3.05 7.85 8.006 7.85m-3.717-9.408c.322-1.76 1.261-2.886 3.079-2.886 1.555 0 2.669 1.125 2.845 2.886h-5.924Zm19.19 9.436c3.93 0 6.834-1.673 6.834-4.906 0-3.78-3.109-4.444-5.749-4.877-1.906-.346-3.607-.49-3.607-1.53 0-.924.909-1.355 2.083-1.355 1.319 0 2.229.404 2.404 1.731h4.4c-.235-2.915-2.522-4.733-6.775-4.733-3.549 0-6.482 1.617-6.482 4.733 0 3.463 2.786 4.155 5.397 4.589 1.995.346 3.812.49 3.812 1.817 0 .953-.909 1.472-2.346 1.472-1.584 0-2.579-.721-2.757-2.193h-4.517c.146 3.26 2.904 5.252 7.303 5.252Zm8.383-.462h4.721v-4.53l1.437-1.501 3.609 6.032h5.543l-5.895-9.235 5.279-5.54h-5.514l-4.458 4.992V36.876h-4.721l-.001 20.636ZM115.14 57.511h-4.78V42.736h4.605v2.02h.088a5.279 5.279 0 0 1 4.633-2.453c3.285 0 5.221 2.309 5.221 5.597v9.611h-4.781v-8.657c0-1.558-.791-2.628-2.346-2.628-1.584 0-2.64 1.299-2.64 3.114v8.171ZM101.225 46.04l.006-3.295h6.917v14.77h-4.549V46.04h-2.374ZM105.535 36.34a2.594 2.594 0 0 1 2.613 2.571 2.61 2.61 0 0 1-2.613 2.563 2.61 2.61 0 0 1-2.612-2.563 2.592 2.592 0 0 1 2.612-2.57Z" fill="#131010"/></g><path d="M65.316 63.948H64.31v7.582h1.005v-7.582ZM81.1 63.948V69.9l-3.985-5.952h-1.03v7.58h.962V65.57l3.986 5.957h1.03v-7.58H81.1Z" fill="#131010"/><mask id="c" style="mask-type:luminance" maskUnits="userSpaceOnUse" x="23" y="36" width="171" height="36"><path d="M193.834 36.34H23.166v35.32h170.668V36.34Z" fill="#fff"/></mask><g mask="url(#c)" fill="#131010"><path d="M92.758 71.528v-7.58h2.614c.453-.012.906.024 1.351.108.41.088.791.274 1.113.543.406.347.715.793.898 1.296.207.577.307 1.187.297 1.8a5.304 5.304 0 0 1-.202 1.532c-.11.394-.285.767-.517 1.104a2.736 2.736 0 0 1-.691.688 2.82 2.82 0 0 1-.906.38 5.176 5.176 0 0 1-1.216.129h-2.74Zm1.005-.895h1.62a3.93 3.93 0 0 0 1.177-.14c.255-.076.488-.21.681-.393.258-.272.449-.6.557-.96a4.69 4.69 0 0 0 .2-1.46 3.527 3.527 0 0 0-.39-1.827 1.968 1.968 0 0 0-.953-.856 3.934 3.934 0 0 0-1.3-.155h-1.593v5.79ZM109.114 67.837a4.12 4.12 0 0 1 1.014-2.956 3.454 3.454 0 0 1 2.619-1.068 3.632 3.632 0 0 1 1.894.501 3.272 3.272 0 0 1 1.286 1.4c.304.634.455 1.331.443 2.035a4.46 4.46 0 0 1-.466 2.063 3.179 3.179 0 0 1-1.319 1.378 3.77 3.77 0 0 1-1.843.469 3.592 3.592 0 0 1-1.915-.517 3.338 3.338 0 0 1-1.279-1.412 4.28 4.28 0 0 1-.434-1.892m1.035.015a3.04 3.04 0 0 0 .738 2.16 2.571 2.571 0 0 0 2.869.58c.319-.137.607-.337.847-.588a3.22 3.22 0 0 0 .732-2.26 3.902 3.902 0 0 0-.313-1.617 2.41 2.41 0 0 0-.916-1.07 2.482 2.482 0 0 0-1.354-.38 2.566 2.566 0 0 0-1.835.73c-.512.486-.768 1.3-.768 2.443M126.665 71.528v-7.58h1.03l3.986 5.953v-5.953h.962v7.58h-1.03l-3.985-5.958v5.958h-.963ZM143.36 71.528v-7.58h5.486v.894h-4.482v2.323h4.197v.89h-4.197v2.579h4.657v.894h-5.661ZM159.077 69.094l.947-.082c.028.331.136.651.313.933.192.266.458.47.763.59.369.154.765.23 1.165.224.346.007.69-.051 1.014-.17.259-.09.487-.252.655-.468.139-.188.215-.416.214-.65a.993.993 0 0 0-.206-.622 1.544 1.544 0 0 0-.682-.448 13.32 13.32 0 0 0-1.351-.37 6.92 6.92 0 0 1-1.464-.473 2.058 2.058 0 0 1-.81-.706 1.73 1.73 0 0 1-.267-.944c0-.382.114-.755.326-1.073.233-.344.565-.609.953-.758a3.615 3.615 0 0 1 1.392-.258 3.809 3.809 0 0 1 1.488.271c.404.16.749.439.991.8.232.356.361.77.373 1.194l-.963.073a1.564 1.564 0 0 0-.525-1.087c-.386-.27-.853-.4-1.322-.366a2.123 2.123 0 0 0-1.328.333 1.005 1.005 0 0 0-.417.804.87.87 0 0 0 .293.674 4 4 0 0 0 1.514.54c.573.112 1.135.274 1.68.484.391.163.729.43.978.773.212.32.322.695.315 1.078 0 .406-.121.803-.347 1.141-.244.368-.59.657-.996.832a3.463 3.463 0 0 1-1.46.298 4.365 4.365 0 0 1-1.726-.3 2.412 2.412 0 0 1-1.092-.903 2.56 2.56 0 0 1-.417-1.362M176.672 63.948h-1.005v7.582h1.005v-7.582ZM186.618 71.528l2.913-7.582h1.082l3.105 7.582h-1.143l-.886-2.296h-3.171l-.835 2.296h-1.065Zm2.19-3.115h2.571l-.791-2.1a20.978 20.978 0 0 1-.539-1.572 9.572 9.572 0 0 1-.409 1.448l-.832 2.224Z"/></g></g><defs><clipPath id="a"><path fill="#fff" transform="translate(23.166 36.34)" d="M0 0h170.667v35.318H0z"/></clipPath></defs></svg>