<svg xmlns="http://www.w3.org/2000/svg" width="217" height="108" fill="none"><path fill="#875F27" d="M18.648 37.213h-3.914c-3.192 0-6.179 1.75-8.342 5.046C4.23 45.35 3.097 49.572 3.097 54c0 4.635 1.235 8.857 3.501 12.05 2.163 3.09 5.047 4.737 8.033 4.737h3.914c2.884-.206 5.561-1.957 7.518-5.046C28.226 62.548 29.36 58.428 29.36 54c0-4.222-1.133-8.445-3.193-11.535-1.854-3.09-4.634-4.84-7.518-5.252Z"/><path fill="#F8B828" d="M25.448 54.102c0-4.428-1.236-8.136-3.09-11.123-1.338-1.956-2.883-3.501-4.737-4.222v-.824H14.43c-5.974 0-10.917 7.21-10.917 16.066 0 4.635 1.339 8.754 3.398 11.74 1.957 2.679 4.635 4.43 7.518 4.43h3.193v-.721c4.635-2.163 7.827-8.137 7.827-15.346Z"/><path fill="#B28445" d="M17.825 70.27h-3.399c-2.883 0-5.561-1.648-7.62-4.634-2.164-3.09-3.4-7.21-3.4-11.741 0-8.96 5.047-16.272 11.123-16.272h3.399v.72c1.75.927 3.399 2.266 4.634 4.223 1.957 3.09 3.09 7.003 3.09 11.226 0 7.106-3.09 13.285-7.621 15.448l-.206 1.03Zm-3.296-32.235c-5.87 0-10.71 7.106-10.71 15.963 0 4.428 1.235 8.548 3.295 11.535 1.957 2.883 4.635 4.428 7.415 4.428h3.09v-.72h.103c2.163-1.03 4.017-2.987 5.458-5.665 1.442-2.678 2.163-6.18 2.163-9.578 0-4.12-1.133-8.033-2.986-11.02-1.442-1.957-3.09-3.398-4.738-4.12h-.103v-.823h-2.987Z"/><path fill="#F6E245" d="M25.748 42.874c-1.957-3.09-4.737-5.046-7.827-5.046-6.076.103-11.02 7.312-11.02 16.066 0 4.635 1.339 8.754 3.399 11.74 1.957 2.678 4.634 4.43 7.518 4.43 5.973 0 10.917-7.21 10.917-16.067-.103-4.222-1.133-8.136-2.987-11.123ZM18.436 66.15h-.515c-2.163 0-4.12-1.34-5.664-3.296-1.545-2.06-2.575-5.046-2.575-8.342v-.515c0-6.591 3.707-12.153 8.136-12.153h.515c4.223.412 7.621 5.665 7.621 12.153v.515c-.103 6.282-3.399 11.226-7.518 11.638Z"/><path fill="#B28445" d="M17.821 70.27c-2.884 0-5.561-1.648-7.621-4.634-2.163-3.09-3.399-7.21-3.399-11.741 0-8.96 4.944-16.272 11.02-16.272 3.09 0 5.87 1.75 7.93 5.046 1.957 3.09 3.09 7.003 3.09 11.226-.103 9.063-5.047 16.375-11.02 16.375Zm0-32.235c-5.87 0-10.71 7.106-10.71 15.963 0 4.428 1.235 8.548 3.295 11.535 1.957 2.883 4.634 4.428 7.415 4.428 5.87 0 10.711-7.106 10.711-15.963 0-4.12-1.133-8.033-2.987-11.02-2.06-3.193-4.737-4.943-7.724-4.943Zm0 28.322c-2.163 0-4.222-1.236-5.767-3.399-1.648-2.163-2.575-5.252-2.575-8.445v-.515c0-6.797 3.708-12.359 8.445-12.359h.515c4.429.412 7.827 5.768 7.827 12.359v.515c-.206 6.282-3.501 11.432-7.827 11.74-.309.104-.412.104-.618.104Zm0-24.306c-4.428 0-8.033 5.356-8.033 12.05v.515c.103 3.193 1.03 6.18 2.575 8.136 1.545 2.06 3.501 3.296 5.458 3.296h.515c4.12-.412 7.312-5.356 7.518-11.432V54.1c0-6.282-3.295-11.535-7.518-12.05h-.515Z"/><path fill="#F8B218" d="M18.438 41.953h-.927.103c4.222.412 7.621 5.664 7.621 12.152v.515c-.206 6.283-3.502 11.226-7.621 11.535h-.103.927c4.12-.412 7.518-5.458 7.62-11.535v-.514c0-6.489-3.398-11.741-7.62-12.153Z"/><path fill="#B28445" d="M17.818 66.362h-.412v-.309h.103c4.12-.412 7.312-5.355 7.518-11.432v-.515c0-6.282-3.296-11.534-7.518-12.05h-.103v-.308h1.133c4.428.412 7.827 5.767 7.827 12.358v.515c-.206 6.283-3.502 11.432-7.828 11.741h-.72Zm1.647-23.996c3.4 1.648 5.768 6.282 5.768 11.74v.515c-.103 5.253-2.575 9.578-5.768 11.226 3.502-1.133 6.283-5.664 6.283-11.226v-.515c.103-5.664-2.575-10.607-6.283-11.74Z"/><path fill="#875F27" d="M22.463 37.213h-3.914c-3.192 0-6.179 1.75-8.342 5.046C8.045 45.35 6.912 49.572 6.912 54c0 4.635 1.236 8.857 3.501 12.05 2.163 3.09 5.047 4.737 8.033 4.737h3.914c2.884-.206 5.561-1.957 7.518-5.046 2.163-3.193 3.296-7.313 3.296-11.741 0-4.222-1.133-8.445-3.193-11.535-1.854-3.09-4.531-4.84-7.518-5.252Z"/><path fill="#F8B828" d="M29.263 54.102c0-4.428-1.236-8.136-3.09-11.123-1.338-1.956-2.883-3.501-4.737-4.222v-.824h-3.192c-5.974 0-10.917 7.21-10.917 16.066 0 4.635 1.339 8.754 3.398 11.74 1.957 2.679 4.635 4.43 7.519 4.43h3.192v-.721c4.635-2.163 7.827-8.137 7.827-15.346Z"/><path fill="#B28445" d="M21.85 70.27h-3.398c-2.884 0-5.562-1.648-7.622-4.634-2.162-3.09-3.398-7.312-3.398-11.741 0-8.96 4.943-16.272 11.02-16.272h3.398v.72c1.751.927 3.399 2.266 4.635 4.223 1.957 3.09 3.09 7.003 3.09 11.226 0 3.502-.721 6.9-2.163 9.68-1.442 2.679-3.296 4.738-5.459 5.768l-.103 1.03Zm-3.398-32.235c-5.87 0-10.711 7.106-10.711 15.963 0 4.428 1.236 8.548 3.296 11.535 1.956 2.883 4.634 4.428 7.415 4.428h3.09v-.72h.102c2.163-1.03 4.017-2.987 5.459-5.665 1.442-2.678 2.162-6.18 2.162-9.578 0-4.12-1.132-8.033-2.986-11.02-1.442-1.957-3.09-3.398-4.738-4.12h-.103v-.823h-2.986Z"/><path fill="#F6E245" d="M29.476 42.874c-1.957-3.09-4.738-5.046-7.827-5.046-5.974 0-10.917 7.209-10.917 16.066 0 4.635 1.339 8.754 3.399 11.74 1.956 2.678 4.634 4.43 7.518 4.43 5.973 0 10.917-7.21 10.917-16.067.103-4.222-1.236-8.136-3.09-11.123Zm-7.21 23.276h-.514c-2.163 0-4.12-1.34-5.665-3.296-1.544-2.06-2.574-5.046-2.574-8.342v-.515c0-6.591 3.707-12.153 8.136-12.153h.515c4.222.412 7.62 5.665 7.62 12.153v.515c0 6.282-3.398 11.226-7.517 11.638Z"/><path fill="#B28445" d="M21.647 70.27c-2.884 0-5.562-1.648-7.621-4.634-2.163-3.09-3.4-7.312-3.4-11.741 0-8.96 4.944-16.272 11.02-16.272 3.09 0 5.871 1.75 7.93 5.046 1.958 3.09 3.09 7.003 3.09 11.226 0 9.063-4.943 16.375-11.02 16.375Zm0-32.235c-5.87 0-10.711 7.106-10.711 15.963 0 4.428 1.236 8.548 3.296 11.535 1.956 2.883 4.634 4.428 7.415 4.428 5.87 0 10.71-7.106 10.71-15.963 0-4.12-1.132-8.033-2.986-11.02-2.06-3.193-4.738-4.943-7.724-4.943Zm0 28.322c-2.163 0-4.223-1.236-5.768-3.399-1.647-2.163-2.574-5.252-2.574-8.445v-.515c0-6.797 3.707-12.359 8.445-12.359h.515c4.428.412 7.827 5.768 7.827 12.359v.515c-.206 6.282-3.502 11.432-7.827 11.74-.103.104-.412.104-.618.104Zm0-24.306c-4.429 0-8.033 5.356-8.033 12.05v.515c.102 3.193 1.03 6.18 2.574 8.136 1.545 2.06 3.502 3.296 5.459 3.296h.515c4.12-.412 7.312-5.356 7.518-11.432V54.1c0-6.282-3.296-11.535-7.518-12.05h-.515Z"/><path fill="#F8B218" d="M22.263 41.947h-.927.103c4.223.412 7.621 5.665 7.621 12.153v.515c-.206 6.282-3.501 11.226-7.62 11.535h-.104.927c4.12-.412 7.518-5.459 7.621-11.535V54.1c0-6.488-3.398-11.74-7.62-12.153Z"/><path fill="#B28445" d="M21.646 66.357h-.412v-.31h.103c4.017-.411 7.313-5.355 7.416-11.43V54.1c0-6.282-3.296-11.535-7.519-12.05h-.103v-.309h1.133c4.429.412 7.827 5.768 7.827 12.36v.514c-.206 6.282-3.501 11.432-7.827 11.74h-.618Zm1.648-23.997c3.399 1.648 5.767 6.283 5.767 11.741v.515c-.102 5.252-2.574 9.578-5.767 11.226 3.502-1.133 6.282-5.664 6.282-11.226v-.515c.206-5.664-2.574-10.608-6.282-11.74Z"/><path fill="#875F27" d="M26.063 37.213h-3.914c-3.193 0-6.18 1.75-8.342 5.046C11.644 45.452 10.51 49.572 10.51 54c0 4.635 1.236 8.857 3.502 12.05 2.163 3.09 5.046 4.737 8.033 4.737h3.914c2.883-.206 5.561-1.957 7.518-5.046 2.163-3.193 3.295-7.313 3.295-11.741 0-4.222-1.133-8.445-3.192-11.535-1.751-3.09-4.532-4.84-7.518-5.252Z"/><path fill="#F8B828" d="M32.968 54.102c0-4.428-1.236-8.136-3.09-11.123-1.338-1.956-2.883-3.501-4.737-4.222v-.824h-3.193c-5.973 0-10.917 7.21-10.917 16.066 0 4.635 1.34 8.754 3.4 11.74 1.956 2.679 4.634 4.43 7.517 4.43h3.296v-.721c4.532-2.163 7.724-8.137 7.724-15.346Z"/><path fill="#B28445" d="M25.45 70.27H22.05c-2.883 0-5.561-1.648-7.62-4.634-2.164-3.09-3.4-7.312-3.4-11.741 0-8.96 5.047-16.272 11.02-16.272h3.399v.72c1.75.927 3.399 2.266 4.634 4.223 1.957 3.09 3.09 7.003 3.09 11.226 0 7.106-3.09 13.285-7.621 15.448l-.103 1.03Zm-3.296-32.235c-5.87 0-10.71 7.106-10.71 15.963 0 4.428 1.235 8.548 3.295 11.535 1.957 2.883 4.635 4.428 7.415 4.428h3.09v-.72h.103c2.163-1.03 4.016-2.987 5.458-5.665 1.442-2.678 2.163-6.18 2.163-9.578 0-4.12-1.133-8.033-2.987-11.02-1.338-1.957-2.986-3.398-4.737-4.12h-.103v-.823h-2.987Z"/><path fill="#F6E245" d="M33.175 42.88c-1.957-3.09-4.737-5.047-7.827-5.047-5.973 0-10.917 7.209-10.917 16.066 0 4.634 1.34 8.754 3.399 11.74 1.957 2.678 4.634 4.43 7.518 4.43 5.973 0 10.917-7.21 10.917-16.067 0-4.223-1.133-8.136-3.09-11.123Zm-7.312 23.275h-.515c-2.163 0-4.12-1.34-5.664-3.296-1.545-2.06-2.575-5.046-2.575-8.342v-.515c0-6.591 3.708-12.153 8.136-12.153h.515c4.223.412 7.621 5.665 7.621 12.153v.515c0 6.282-3.296 11.226-7.518 11.638Z"/><path fill="#B28445" d="M25.451 70.272c-2.884 0-5.561-1.648-7.621-4.634-2.163-3.09-3.399-7.312-3.399-11.74 0-8.858 4.84-16.17 11.02-16.17 3.09 0 5.87 1.75 7.93 5.046 1.957 3.09 3.09 7.004 3.09 11.226-.103 8.96-4.943 16.272-11.02 16.272Zm0-32.235c-5.87 0-10.71 7.106-10.71 15.963 0 4.429 1.235 8.548 3.295 11.535 1.957 2.883 4.634 4.428 7.415 4.428 5.87 0 10.711-7.106 10.711-15.963 0-4.12-1.133-8.033-2.987-11.02-2.162-3.192-4.943-4.943-7.724-4.943Zm0 28.322c-2.163 0-4.222-1.236-5.767-3.399-1.648-2.163-2.575-5.252-2.575-8.445V54c0-6.797 3.708-12.359 8.445-12.359h.515c4.429.412 7.827 5.768 7.827 12.36v.514c-.206 6.282-3.501 11.432-7.827 11.74-.309.104-.618.104-.618.104Zm0-24.306c-4.428 0-8.033 5.356-8.033 12.05v.515c.103 3.193 1.03 6.18 2.575 8.136 1.545 2.06 3.501 3.296 5.458 3.296h.515c4.12-.412 7.312-5.356 7.518-11.432v-.515c0-6.282-3.295-11.535-7.518-12.05h-.515Z"/><path fill="#F8B218" d="M25.868 41.947h-.927.103c4.223.412 7.621 5.665 7.621 12.153v.515c-.206 6.282-3.501 11.226-7.62 11.535h-.104.927c4.12-.412 7.518-5.459 7.621-11.535V54.1c.103-6.488-3.295-11.74-7.62-12.153Z"/><path fill="#B28445" d="M25.458 66.357h-.412v-.31h.103c4.12-.411 7.313-5.355 7.518-11.43V54.1c0-6.282-3.295-11.535-7.518-12.05h-.103v-.309h1.133c4.429.412 7.827 5.768 7.827 12.36v.514c-.309 6.282-3.604 11.329-7.93 11.74h-.618Zm1.545-23.997c3.399 1.648 5.767 6.283 5.767 11.741v.515c-.103 5.252-2.574 9.578-5.767 11.226 3.502-1.133 6.282-5.664 6.282-11.226v-.515c.103-5.664-2.574-10.608-6.282-11.74Z"/><path fill="#F6E245" d="M22.974 57.502v3.914H21.84v-1.648l1.133-2.266ZM24.319 54.922l.515.927v5.561H23.7v-5.355l.618-1.133ZM26.578 55.337v6.076h-1.133v-3.707l.31-.206.72-1.648.103-.515ZM28.539 51.632v9.784h-1.133v-7.518l1.133-2.266Z"/><path fill="#875F27" d="M25.449 55.745h-.31l-.823-1.648h.515l.618 1.648ZM21.84 59.762h-.514v1.75h.515v-1.75Z"/><path fill="#875F27" d="M21.84 59.768h-.514l1.133-2.266h.515l-1.133 2.266ZM23.8 56.057h-.514v5.355h.515v-5.355ZM23.698 56.055h-.412l.515-1.133h.515l-.618 1.133ZM26.479 55.852h-.618l.309-.515h.412l-.103.515ZM25.759 57.5h-.618l.72-1.648h.619l-.721 1.648ZM25.45 57.708h-.31v-.206h.619l-.31.206Z"/><path fill="#875F27" d="M25.656 57.707h-.515v3.913h.515v-3.913ZM27.51 53.892h-.514v7.518h.515v-7.518Z"/><path fill="#875F27" d="M27.408 53.893h-.412l1.133-2.266h.412l-1.133 2.266ZM29.262 49.356h-.515l-.206-.824h.515l.206.824ZM28.23 46.89h-.515l-.31-.618h.516l.309.618ZM25.45 52.35h-.31l2.576-5.458h.515l-2.781 5.459ZM24.836 54.097h-.515l-.515-1.03h.618l.412 1.03ZM23.596 51.422h-.515l.721-1.545h.618l-.824 1.545ZM20.92 57.19H20.3l2.78-5.768h.516l-2.678 5.767ZM21.64 58.634h-.515l-.824-1.442h.618l.721 1.442Z"/><path fill="#F6E245" d="M27.92 46.272h1.338v3.09l-.206-.824-2.678 5.561-.927 1.648-.617-1.648-.412-1.03-2.781 5.562-.721-1.442 2.678-5.767.823-1.545.721 1.545.31.927 2.78-5.459-.309-.618Z"/><path fill="#0B0B0B" d="M42.989 54.43c0-1.93.43-3.653 1.292-5.17.88-1.536 2.07-2.726 3.57-3.57 1.517-.861 3.212-1.292 5.086-1.292 2.192 0 4.112.562 5.76 1.686 1.65 1.124 2.801 2.68 3.457 4.665H57.63c-.45-.937-1.087-1.64-1.911-2.108-.806-.468-1.743-.702-2.81-.702-1.143 0-2.164.272-3.064.815-.88.525-1.573 1.274-2.08 2.248-.486.974-.73 2.117-.73 3.428 0 1.293.244 2.436.73 3.429.507.974 1.2 1.733 2.08 2.276.9.525 1.92.787 3.063.787 1.068 0 2.005-.234 2.81-.703.825-.487 1.462-1.199 1.912-2.135h4.524c-.656 2.004-1.808 3.569-3.457 4.693-1.63 1.105-3.55 1.658-5.76 1.658-1.874 0-3.57-.422-5.087-1.265a9.596 9.596 0 0 1-3.569-3.569c-.861-1.517-1.292-3.24-1.292-5.17ZM72.427 64.52c-1.499 0-2.847-.328-4.046-.984a7.379 7.379 0 0 1-2.839-2.838c-.674-1.218-1.011-2.623-1.011-4.215 0-1.593.346-2.998 1.04-4.215a7.32 7.32 0 0 1 2.894-2.81c1.218-.675 2.576-1.012 4.075-1.012 1.498 0 2.857.337 4.074 1.011a7.132 7.132 0 0 1 2.867 2.81c.712 1.218 1.068 2.623 1.068 4.216 0 1.592-.366 2.997-1.096 4.215a7.467 7.467 0 0 1-2.923 2.838c-1.218.656-2.585.984-4.103.984Zm0-3.429c.712 0 1.377-.168 1.995-.505.638-.356 1.143-.88 1.518-1.574.375-.693.562-1.536.562-2.53 0-1.48-.393-2.613-1.18-3.4-.768-.805-1.714-1.208-2.838-1.208-1.125 0-2.07.403-2.839 1.209-.75.786-1.124 1.92-1.124 3.4s.365 2.623 1.096 3.428c.75.787 1.686 1.18 2.81 1.18ZM85.43 46.843c-.693 0-1.274-.215-1.743-.646-.45-.45-.674-1.003-.674-1.658 0-.656.225-1.2.674-1.63.469-.45 1.05-.675 1.743-.675.693 0 1.264.225 1.714.675.468.43.703.974.703 1.63 0 .655-.235 1.208-.703 1.658-.45.43-1.021.646-1.714.646Zm1.939 1.855v15.568h-3.934V48.698h3.934Zm12.514-.225c1.855 0 3.354.59 4.496 1.77 1.143 1.162 1.715 2.792 1.715 4.89v9.133h-3.935v-8.6c0-1.236-.309-2.182-.927-2.837-.618-.675-1.461-1.012-2.53-1.012-1.086 0-1.948.337-2.585 1.012-.618.655-.927 1.601-.927 2.838v8.599h-3.934V48.698h3.934v1.939a5.334 5.334 0 0 1 1.995-1.574 6.182 6.182 0 0 1 2.698-.59Zm16.443 12.168 3.934-11.943h4.188l-5.761 15.568h-4.778l-5.732-15.568h4.215l3.934 11.943Zm24.804-4.496c0 .562-.038 1.067-.113 1.517h-11.381c.094 1.124.487 2.005 1.18 2.642.694.637 1.546.955 2.558.955 1.461 0 2.501-.627 3.119-1.883h4.243c-.449 1.5-1.311 2.736-2.585 3.71-1.274.955-2.838 1.433-4.693 1.433-1.499 0-2.848-.328-4.047-.984a7.245 7.245 0 0 1-2.782-2.838c-.655-1.218-.983-2.623-.983-4.215 0-1.611.328-3.026.983-4.243.656-1.218 1.574-2.155 2.754-2.81 1.18-.656 2.539-.984 4.075-.984 1.48 0 2.801.318 3.962.955a6.587 6.587 0 0 1 2.726 2.726c.656 1.162.984 2.501.984 4.019Zm-4.075-1.124c-.019-1.012-.384-1.818-1.096-2.417-.712-.618-1.583-.928-2.613-.928-.975 0-1.799.3-2.473.9-.656.58-1.059 1.395-1.209 2.445h7.391Zm12.904 9.498c-1.274 0-2.417-.225-3.429-.675-1.011-.468-1.817-1.096-2.416-1.882a4.788 4.788 0 0 1-.956-2.614h3.963c.075.6.365 1.096.871 1.49.524.393 1.171.59 1.939.59.749 0 1.33-.15 1.742-.45.431-.3.646-.684.646-1.152 0-.506-.262-.88-.786-1.124-.506-.262-1.321-.543-2.445-.843-1.162-.281-2.117-.572-2.867-.871a5.105 5.105 0 0 1-1.911-1.377c-.524-.618-.786-1.452-.786-2.501 0-.862.243-1.649.73-2.36.506-.713 1.218-1.275 2.136-1.687.937-.412 2.033-.618 3.288-.618 1.855 0 3.335.468 4.44 1.405 1.105.918 1.714 2.164 1.827 3.737h-3.766c-.056-.618-.319-1.105-.787-1.46-.45-.376-1.058-.563-1.827-.563-.711 0-1.264.131-1.658.394-.374.262-.562.627-.562 1.096 0 .524.263.927.787 1.208.525.262 1.34.534 2.445.815 1.124.28 2.052.571 2.782.87a4.75 4.75 0 0 1 1.883 1.406c.543.618.824 1.443.843 2.473 0 .9-.253 1.705-.759 2.417-.487.712-1.199 1.274-2.135 1.686-.918.393-1.996.59-3.232.59Zm13.936-12.59v7.532c0 .524.122.908.365 1.152.263.225.694.337 1.293.337h1.827v3.316h-2.473c-3.316 0-4.974-1.611-4.974-4.834V51.93h-1.855v-3.231h1.855v-3.85h3.962v3.85h3.485v3.231h-3.485Zm5.303 4.497c0-1.574.309-2.97.927-4.188.637-1.217 1.489-2.154 2.557-2.81 1.087-.655 2.295-.983 3.625-.983 1.162 0 2.174.234 3.035.702.881.469 1.583 1.059 2.108 1.77v-2.22h3.962v15.569h-3.962V61.99c-.506.73-1.208 1.34-2.108 1.826-.88.469-1.901.703-3.063.703a6.689 6.689 0 0 1-3.597-1.012c-1.068-.674-1.92-1.62-2.557-2.838-.618-1.236-.927-2.65-.927-4.243Zm12.252.056c0-.956-.187-1.77-.562-2.445-.375-.693-.881-1.218-1.517-1.574a3.98 3.98 0 0 0-2.052-.562c-.731 0-1.405.178-2.023.534-.618.356-1.124.88-1.518 1.574-.374.674-.562 1.48-.562 2.417 0 .936.188 1.76.562 2.473.394.693.9 1.227 1.518 1.601a3.927 3.927 0 0 0 2.023.562 4.14 4.14 0 0 0 2.052-.533 4.096 4.096 0 0 0 1.517-1.574c.375-.693.562-1.518.562-2.473Zm13.762 8.037c-1.274 0-2.416-.225-3.428-.675-1.012-.468-1.817-1.096-2.417-1.882a4.787 4.787 0 0 1-.955-2.614h3.962c.075.6.365 1.096.871 1.49.525.393 1.171.59 1.939.59.75 0 1.33-.15 1.743-.45.43-.3.646-.684.646-1.152 0-.506-.262-.88-.787-1.124-.506-.262-1.321-.543-2.445-.843-1.161-.281-2.117-.572-2.866-.871a5.09 5.09 0 0 1-1.911-1.377c-.525-.618-.787-1.452-.787-2.501 0-.862.244-1.649.731-2.36.506-.713 1.217-1.275 2.135-1.687.937-.412 2.033-.618 3.288-.618 1.855 0 3.335.468 4.44 1.405 1.106.918 1.715 2.164 1.827 3.737h-3.766c-.056-.618-.318-1.105-.786-1.46-.45-.376-1.059-.563-1.827-.563-.712 0-1.265.131-1.658.394-.375.262-.562.627-.562 1.096 0 .524.262.927.787 1.208.524.262 1.339.534 2.445.815 1.124.28 2.051.571 2.782.87.73.3 1.358.769 1.882 1.406.544.618.825 1.443.844 2.473 0 .9-.253 1.705-.759 2.417-.487.712-1.199 1.274-2.136 1.686-.918.393-1.995.59-3.232.59Zm11.351-17.676c-.693 0-1.274-.215-1.742-.646-.45-.45-.674-1.003-.674-1.658 0-.656.224-1.2.674-1.63.468-.45 1.049-.675 1.742-.675.693 0 1.265.225 1.714.675.469.43.703.974.703 1.63 0 .655-.234 1.208-.703 1.658-.449.43-1.021.646-1.714.646Zm1.939 1.855v15.568h-3.934V48.698h3.934Z"/></svg>