<svg xmlns="http://www.w3.org/2000/svg" width="2426" height="387" fill="none"><path fill="#875F27" d="M178.952 0h-45.034C97.179 0 62.811 20.147 37.924 58.07 13.036 93.625 0 142.215 0 193.174c0 53.33 14.221 101.92 40.294 138.659 24.887 35.553 58.07 54.515 92.439 54.515h45.034c33.183-2.37 63.996-22.517 86.513-58.071 24.887-36.738 37.924-84.143 37.924-135.103 0-48.589-13.037-97.179-36.739-132.732C244.133 24.887 212.135 4.74 178.952 0Z"/><path fill="#F8B828" d="M257.265 194.375c0-50.96-14.221-93.624-35.553-127.992-15.407-22.517-33.184-40.294-54.516-48.59v-9.48h-36.738C61.721 8.313 4.836 91.27 4.836 193.19c0 53.33 15.406 100.735 39.109 135.103 22.517 30.813 53.33 50.96 86.513 50.96h36.738v-8.296c53.33-24.887 90.069-93.624 90.069-176.582Z"/><path fill="#B28445" d="M169.541 380.423h-39.109c-33.183 0-63.996-18.962-87.698-53.33C17.846 291.54 3.625 244.135 3.625 191.99c0-103.105 58.07-187.248 127.992-187.248h39.109v8.296c20.147 10.666 39.109 26.073 53.33 48.59 22.517 35.553 35.553 80.587 35.553 129.177 0 81.773-35.553 152.879-87.698 177.767l-2.37 11.851ZM131.617 9.483C64.066 9.483 8.365 91.255 8.365 193.175c0 50.96 14.222 98.364 37.924 132.733 22.517 33.183 53.33 50.96 85.328 50.96h35.554v-8.296h1.185c24.887-11.851 46.219-34.368 62.811-65.181 16.591-30.813 24.887-71.107 24.887-110.216 0-47.404-13.036-92.439-34.368-126.807-16.592-22.517-35.554-39.109-54.515-47.404h-1.186V9.482h-34.368Z"/><path fill="#F6E245" d="M260.782 65.172c-22.517-35.553-54.515-58.07-90.069-58.07C100.792 8.287 43.906 91.245 43.906 191.979c0 53.33 15.407 100.735 39.109 135.103 22.517 30.813 53.33 50.96 86.513 50.96 68.737 0 125.622-82.958 125.622-184.878-1.185-48.589-13.036-93.624-34.368-127.992Zm-84.143 267.836h-5.926c-24.887 0-47.404-15.407-65.181-37.924-17.777-23.702-29.628-58.071-29.628-95.994v-5.926c0-75.847 42.664-139.843 93.624-139.843h5.926c48.589 4.74 87.698 65.181 87.698 139.843v5.926c-1.185 72.292-39.109 129.177-86.513 133.918Z"/><path fill="#B28445" d="M169.502 380.423c-33.183 0-63.996-18.962-87.698-53.33-24.887-35.553-39.109-82.958-39.109-135.103 0-103.105 56.886-187.248 126.807-187.248 35.554 0 67.552 20.147 91.254 58.07 22.517 35.554 35.553 80.588 35.553 129.178-1.185 104.29-58.07 188.433-126.807 188.433Zm0-370.94c-67.551 0-123.251 81.772-123.251 183.692 0 50.96 14.221 98.364 37.923 132.733 22.517 33.183 53.33 50.96 85.328 50.96 67.552 0 123.252-81.773 123.252-183.693 0-47.404-13.036-92.439-34.368-126.807-23.702-36.738-54.515-56.885-88.884-56.885Zm0 325.906c-24.887 0-48.589-14.222-66.366-39.109-18.962-24.887-29.628-60.441-29.628-97.179v-5.926c0-78.217 42.664-142.213 97.18-142.213h5.925c50.96 4.74 90.069 66.366 90.069 142.213v5.926c-2.371 72.292-40.294 131.547-90.069 135.103-3.555 1.185-4.74 1.185-7.111 1.185Zm0-279.687c-50.959 0-92.438 61.626-92.438 138.658v5.926c1.185 36.738 11.85 71.107 29.627 93.624 17.777 23.702 40.294 37.923 62.811 37.923h5.926c47.404-4.74 84.143-61.626 86.513-131.547v-5.926c0-72.292-37.923-132.732-86.513-138.658h-5.926Z"/><path fill="#F8B218" d="M176.596 54.605H165.93h1.185c48.589 4.74 87.698 65.182 87.698 139.844v5.925c-2.37 72.292-40.294 129.178-87.698 132.733h-1.185 10.666c47.404-4.741 86.513-62.811 87.698-132.733v-5.925c0-74.662-39.109-135.103-87.698-139.844Z"/><path fill="#B28445" d="M169.459 335.461h-4.74v-3.556h1.185c47.404-4.74 84.143-61.626 86.513-131.547v-5.926c0-72.292-37.924-132.732-86.513-138.658h-1.185V52.22h13.036c50.96 4.74 90.069 66.366 90.069 142.213v5.926c-2.371 72.292-40.294 131.547-90.069 135.103h-8.296Zm18.962-276.132c39.109 18.962 66.366 72.292 66.366 135.103v5.926c-1.185 60.441-29.627 110.215-66.366 129.177 40.294-13.036 72.292-65.181 72.292-129.177v-5.926c1.185-65.181-29.628-122.066-72.292-135.103Z"/><path fill="#875F27" d="M222.843 0h-45.035c-36.738 0-71.106 20.147-95.994 58.07-24.887 35.554-37.923 84.144-37.923 135.103 0 53.33 14.221 101.92 40.293 138.659 24.888 35.553 58.071 54.515 92.439 54.515h45.035c33.183-2.37 63.996-22.517 86.513-58.071 24.887-36.738 37.923-84.143 37.923-135.103 0-48.589-13.036-97.179-36.738-132.732C288.024 24.887 257.211 4.74 222.843 0Z"/><path fill="#F8B828" d="M301.046 194.375c0-50.96-14.221-93.624-35.553-127.992-15.407-22.517-33.183-40.294-54.515-48.59v-9.48h-36.739c-68.736 0-125.622 82.957-125.622 184.877 0 53.33 15.407 100.735 39.109 135.103 22.517 30.813 53.33 50.96 86.513 50.96h36.739v-8.296c53.33-24.887 90.068-93.624 90.068-176.582Z"/><path fill="#B28445" d="M215.744 380.423h-39.109c-33.183 0-63.996-18.962-87.698-53.33C64.049 291.54 49.828 242.95 49.828 191.99c0-103.105 56.886-187.248 126.807-187.248h39.109v8.296c20.147 10.666 39.109 26.073 53.33 48.59 22.517 35.553 35.553 80.587 35.553 129.177 0 40.294-8.295 79.402-24.887 111.401-16.592 30.812-37.924 54.515-62.811 66.366l-1.185 11.851ZM176.635 9.483c-67.551 0-123.251 81.772-123.251 183.692 0 50.96 14.22 98.364 37.923 132.733 22.517 33.183 53.33 50.96 85.328 50.96h35.554v-8.296h1.185c24.887-11.851 46.219-34.368 62.811-65.181 16.591-30.813 24.887-71.107 24.887-110.216 0-47.404-13.036-92.439-34.368-126.807-16.592-22.517-35.554-39.109-54.515-47.404h-1.186V9.482h-34.368Z"/><path fill="#F6E245" d="M303.503 65.172c-22.517-35.553-54.515-58.07-90.069-58.07-68.736 0-125.621 82.958-125.621 184.877 0 53.33 15.406 100.735 39.108 135.103 22.517 30.813 53.33 50.96 86.513 50.96 68.737 0 125.622-82.958 125.622-184.878 1.186-48.589-14.221-93.624-35.553-127.992Zm-82.958 267.836h-5.925c-24.888 0-47.405-15.407-65.182-37.924-17.776-23.702-29.627-58.071-29.627-95.994v-5.926c0-75.847 42.664-139.843 93.623-139.843h5.926c48.59 4.74 87.698 65.181 87.698 139.843v5.926c0 72.292-39.108 129.177-86.513 133.918Z"/><path fill="#B28445" d="M213.409 380.423c-33.184 0-63.996-18.962-87.699-53.33-24.887-35.553-39.108-84.143-39.108-135.103 0-103.105 56.885-187.248 126.807-187.248 35.553 0 67.551 20.147 91.253 58.07 22.517 35.554 35.554 80.588 35.554 129.178 0 104.29-56.886 188.433-126.807 188.433Zm0-370.94c-67.552 0-123.252 81.772-123.252 183.692 0 50.96 14.221 98.364 37.924 132.733 22.517 33.183 53.33 50.96 85.328 50.96 67.551 0 123.251-81.773 123.251-183.693 0-47.404-13.036-92.439-34.368-126.807C278.59 29.63 247.777 9.483 213.409 9.483Zm0 325.906c-24.888 0-48.59-14.222-66.367-39.109-18.961-24.887-29.628-60.441-29.628-97.179v-5.926c0-78.217 42.665-142.213 97.18-142.213h5.925c50.96 4.74 90.069 66.366 90.069 142.213v5.926c-2.37 72.292-40.294 131.547-90.069 135.103-1.185 1.185-4.74 1.185-7.11 1.185Zm0-279.687c-50.96 0-92.439 61.626-92.439 138.658v5.926c1.185 36.738 11.851 71.107 29.628 93.624 17.776 23.702 40.293 37.923 62.811 37.923h5.925c47.405-4.74 84.143-61.626 86.513-131.547v-5.926c0-72.292-37.923-132.732-86.513-138.658h-5.925Z"/><path fill="#F8B218" d="M220.611 54.508h-10.666 1.185c48.59 4.74 87.699 65.181 87.699 139.843v5.926c-2.37 72.291-40.294 129.177-87.699 132.732h-1.185 10.666c47.405-4.74 86.514-62.811 87.699-132.732v-5.926c0-74.662-39.109-135.103-87.699-139.843Z"/><path fill="#B28445" d="M213.449 335.363h-4.74v-3.555h1.185c46.219-4.741 84.143-61.626 85.328-131.548v-5.925c0-72.292-37.924-132.733-86.513-138.659h-1.186v-3.555h13.037c50.96 4.74 90.068 66.366 90.068 142.214v5.925c-2.37 72.292-40.294 131.548-90.068 135.103h-7.111Zm18.962-276.131c39.109 18.962 66.366 72.292 66.366 135.103v5.925c-1.185 60.441-29.628 110.216-66.366 129.177 40.294-13.036 72.292-65.181 72.292-129.177v-5.925c2.37-65.182-29.628-122.067-72.292-135.103Z"/><path fill="#875F27" d="M264.343 0h-45.035c-36.738 0-71.106 20.147-95.994 58.07-24.887 36.739-37.923 84.144-37.923 135.103 0 53.33 14.221 101.92 40.293 138.659 24.888 35.553 58.071 54.515 92.439 54.515h45.035c33.183-2.37 63.996-22.517 86.513-58.071 24.887-36.738 37.923-84.143 37.923-135.103 0-48.589-13.036-97.179-36.738-132.732C330.709 24.887 298.711 4.74 264.343 0Z"/><path fill="#F8B828" d="M343.742 194.375c0-50.96-14.222-93.624-35.554-127.992-15.406-22.517-33.183-40.294-54.515-48.59v-9.48h-36.739c-68.736 0-125.621 82.957-125.621 184.877 0 53.33 15.406 100.735 39.108 135.103 22.517 30.813 53.33 50.96 86.513 50.96h37.924v-8.296c52.145-24.887 88.884-93.624 88.884-176.582Z"/><path fill="#B28445" d="M257.228 380.423H218.12c-33.184 0-63.997-18.962-87.699-53.33-24.887-35.553-39.108-84.143-39.108-135.103 0-103.105 58.07-187.248 126.807-187.248h39.108v8.296c20.147 10.666 39.109 26.073 53.33 48.59 22.518 35.553 35.554 80.587 35.554 129.177 0 81.773-35.554 152.879-87.699 177.767l-1.185 11.851ZM219.305 9.483c-67.552 0-123.252 81.772-123.252 183.692 0 50.96 14.221 98.364 37.924 132.733 22.517 33.183 53.33 50.96 85.328 50.96h35.553v-8.296h1.185c24.888-11.851 46.22-34.368 62.811-65.181 16.592-30.813 24.888-71.107 24.888-110.216 0-47.404-13.037-92.439-34.369-126.807-15.406-22.517-34.368-39.109-54.515-47.404h-1.185V9.482h-34.368Z"/><path fill="#F6E245" d="M346.058 65.164c-22.517-35.553-54.516-58.07-90.069-58.07-68.736 0-125.622 82.958-125.622 184.877 0 53.33 15.407 100.735 39.109 135.103 22.517 30.813 53.33 50.96 86.513 50.96 68.737 0 125.622-82.958 125.622-184.878 0-48.589-13.036-93.623-35.553-127.992ZM261.915 333h-5.926c-24.887 0-47.404-15.407-65.181-37.924-17.777-23.702-29.628-58.07-29.628-95.994v-5.926c0-75.847 42.664-139.843 93.624-139.843h5.926c48.589 4.74 87.698 65.181 87.698 139.843v5.926c0 72.292-37.924 129.177-86.513 133.918Z"/><path fill="#B28445" d="M257.174 380.414c-33.183 0-63.996-18.962-87.698-53.331-24.887-35.553-39.109-84.142-39.109-135.102 0-101.92 55.7-186.063 126.807-186.063 35.554 0 67.552 20.147 91.254 58.07 22.517 35.554 35.553 80.588 35.553 129.178-1.185 103.105-56.885 187.248-126.807 187.248Zm0-370.94c-67.551 0-123.251 81.772-123.251 183.692 0 50.96 14.221 98.364 37.923 132.732 22.517 33.184 53.33 50.96 85.328 50.96 67.552 0 123.252-81.773 123.252-183.692 0-47.405-13.036-92.439-34.368-126.807C321.17 29.62 289.172 9.473 257.174 9.473Zm0 325.905c-24.887 0-48.589-14.221-66.366-39.108-18.962-24.888-29.628-60.441-29.628-97.18v-5.925c0-78.218 42.664-142.214 97.179-142.214h5.926c50.96 4.74 90.069 66.367 90.069 142.214v5.925c-2.371 72.292-40.294 131.548-90.069 135.103-3.555 1.185-7.111 1.185-7.111 1.185Zm0-279.686c-50.96 0-92.439 61.626-92.439 138.658v5.925c1.186 36.739 11.852 71.107 29.628 93.624 17.777 23.703 40.294 37.924 62.811 37.924h5.926c47.404-4.741 84.143-61.626 86.513-131.548v-5.925c0-72.292-37.924-132.733-86.513-138.658h-5.926Z"/><path fill="#F8B218" d="M261.971 54.504h-10.666 1.185c48.589 4.74 87.698 65.181 87.698 139.843v5.926c-2.37 72.292-40.294 129.177-87.698 132.732h-1.185 10.666c47.404-4.74 86.513-62.811 87.698-132.732v-5.926c1.185-74.662-37.924-135.103-87.698-139.843Z"/><path fill="#B28445" d="M257.256 335.359h-4.74v-3.555h1.185c47.404-4.741 84.143-61.626 86.513-131.548v-5.925c0-72.292-37.924-132.733-86.513-138.659h-1.185v-3.555h13.036c50.96 4.74 90.068 66.366 90.068 142.214v5.925c-3.555 72.292-41.479 130.363-91.253 135.103h-7.111Zm17.777-276.131c39.108 18.962 66.366 72.292 66.366 135.103v5.925c-1.185 60.441-29.628 110.216-66.366 129.178 40.294-13.037 72.292-65.182 72.292-129.178v-5.925c1.185-65.181-29.628-122.067-72.292-135.103Z"/><path fill="#F6E245" d="M228.771 233.469v45.034h-13.037v-18.962l13.037-26.072ZM244.134 203.812l5.926 10.667v63.996h-13.037v-61.626l7.111-13.037ZM270.138 208.555v69.921h-13.036v-42.664l3.555-2.37 8.296-18.962 1.185-5.925ZM292.755 165.93v112.585h-13.036v-86.513l13.036-26.072Z"/><path fill="#875F27" d="M257.208 213.286h-3.555l-9.481-18.962h5.925l7.111 18.962ZM215.738 259.535h-5.926v20.147h5.926v-20.147Z"/><path fill="#875F27" d="M215.738 259.576h-5.926l13.037-26.072h5.925l-13.036 26.072ZM238.23 216.871h-5.925v61.626h5.925v-61.626ZM237.045 216.857h-4.74l5.925-13.037h5.926l-7.111 13.037ZM269.056 214.488h-7.111l3.556-5.926h4.74l-1.185 5.926ZM260.845 233.477h-7.111l8.296-18.961h7.111l-8.296 18.961ZM257.29 235.874h-3.556v-2.37h7.111l-3.555 2.37ZM259.66 235.895h-5.926v45.034h5.926v-45.034ZM280.926 191.93H275v86.513h5.926V191.93Z"/><path fill="#875F27" d="M279.74 192.002H275l13.036-26.072h4.741l-13.037 26.072ZM301.077 139.793h-5.926l-2.37-9.481h5.926l2.37 9.481ZM289.192 111.392h-5.926l-3.555-7.111h5.925l3.556 7.111ZM257.29 174.229h-3.556l29.628-62.811h5.926l-31.998 62.811ZM250.078 194.316h-5.926l-5.925-11.851h7.11l4.741 11.851ZM235.933 163.507h-5.925l8.296-17.777h7.11l-9.481 17.777ZM205.079 229.937h-7.11l31.998-66.367h5.925l-30.813 66.367Z"/><path fill="#875F27" d="M213.375 246.525h-5.925l-9.481-16.591h7.11l8.296 16.591Z"/><path fill="#F6E245" d="M285.689 104.281h15.407v35.554l-2.371-9.481-30.812 63.996-10.666 18.962-7.111-18.962-4.741-11.851-31.998 63.996-8.295-16.592 30.812-66.366 9.481-17.777 8.296 17.777 3.556 10.666 31.998-62.811-3.556-7.111Z"/><path fill="#2C2C2C" d="M478.982 193.445c0-22.205 4.959-42.038 14.875-59.5 10.133-17.678 23.822-31.367 41.069-41.068 17.462-9.917 36.972-14.875 58.53-14.875 25.223 0 47.32 6.467 66.291 19.402 18.971 12.935 32.229 30.828 39.775 53.679h-52.063c-5.174-10.779-12.504-18.863-21.989-24.252-9.27-5.39-20.049-8.085-32.338-8.085-13.15 0-24.899 3.126-35.247 9.378-10.132 6.036-18.109 14.66-23.929 25.87-5.606 11.21-8.408 24.36-8.408 39.451 0 14.875 2.802 28.026 8.408 39.451 5.82 11.211 13.797 19.942 23.929 26.193 10.348 6.037 22.097 9.055 35.247 9.055 12.289 0 23.068-2.695 32.338-8.084 9.485-5.606 16.815-13.798 21.989-24.577h52.063c-7.546 23.067-20.804 41.068-39.775 54.003-18.756 12.72-40.853 19.079-66.291 19.079-21.558 0-41.068-4.85-58.53-14.551-17.247-9.917-30.936-23.607-41.069-41.069-9.916-17.462-14.875-37.295-14.875-59.5Zm338.757 116.09c-17.247 0-32.768-3.772-46.566-11.318-13.797-7.761-24.684-18.647-32.66-32.66-7.761-14.013-11.641-30.181-11.641-48.506 0-18.324 3.988-34.493 11.964-48.505 8.192-14.013 19.295-24.792 33.308-32.338 14.012-7.76 29.642-11.641 46.888-11.641 17.247 0 32.876 3.881 46.889 11.641 14.013 7.546 25.008 18.325 32.984 32.338 8.192 14.012 12.288 30.181 12.288 48.505 0 18.325-4.204 34.493-12.611 48.506-8.192 14.013-19.403 24.899-33.631 32.66-14.013 7.546-29.75 11.318-47.212 11.318Zm0-39.451c8.192 0 15.845-1.94 22.959-5.821 7.33-4.096 13.151-10.132 17.462-18.108 4.312-7.977 6.468-17.678 6.468-29.104 0-17.031-4.527-30.073-13.582-39.128-8.839-9.27-19.726-13.905-32.66-13.905-12.935 0-23.822 4.635-32.661 13.905-8.623 9.055-12.935 22.097-12.935 39.128s4.204 30.182 12.612 39.451c8.623 9.055 19.402 13.582 32.337 13.582Zm149.622-163.949c-7.976 0-14.659-2.479-20.049-7.438-5.174-5.174-7.761-11.533-7.761-19.079 0-7.545 2.587-13.797 7.761-18.755 5.39-5.174 12.073-7.761 20.049-7.761 7.977 0 14.552 2.587 19.726 7.761 5.389 4.958 8.084 11.21 8.084 18.755 0 7.546-2.695 13.905-8.084 19.08-5.174 4.958-11.749 7.437-19.726 7.437Zm22.313 21.342v179.148h-45.272V127.477h45.272Zm144.006-2.587c21.34 0 38.59 6.791 51.74 20.373 13.15 13.366 19.72 32.121 19.72 56.266v105.096h-45.27v-98.952c0-14.228-3.56-25.115-10.67-32.66-7.11-7.761-16.82-11.641-29.1-11.641-12.51 0-22.42 3.88-29.75 11.641-7.12 7.545-10.68 18.432-10.68 32.66v98.952h-45.27V127.477h45.27v22.313c6.04-7.761 13.69-13.797 22.96-18.109 9.49-4.527 19.84-6.791 31.05-6.791Zm189.21 140.02 45.27-137.433h48.19l-66.29 179.148h-54.98l-65.97-179.148h48.51l45.27 137.433Zm285.42-51.739c0 6.467-.43 12.288-1.29 17.462h-130.97c1.08 12.935 5.61 23.067 13.58 30.397 7.98 7.329 17.79 10.994 29.43 10.994 16.82 0 28.78-7.222 35.89-21.666h48.83c-5.17 17.247-15.09 31.475-29.75 42.685-14.66 10.995-32.66 16.492-54 16.492-17.25 0-32.77-3.772-46.57-11.318-13.58-7.761-24.25-18.647-32.01-32.66-7.54-14.013-11.32-30.181-11.32-48.506 0-18.54 3.78-34.816 11.32-48.829 7.55-14.013 18.11-24.792 31.69-32.337 13.58-7.545 29.21-11.318 46.89-11.318 17.03 0 32.23 3.665 45.6 10.995 13.58 7.329 24.03 17.785 31.36 31.367 7.55 13.366 11.32 28.78 11.32 46.242Zm-46.89-12.935c-.21-11.641-4.42-20.911-12.61-27.81-8.19-7.114-18.22-10.671-30.07-10.671-11.21 0-20.7 3.449-28.46 10.348-7.55 6.683-12.18 16.06-13.9 28.133h85.04Zm148.49 109.299c-14.66 0-27.81-2.587-39.45-7.761-11.64-5.389-20.91-12.611-27.81-21.665-6.68-9.055-10.35-19.079-11-30.074h45.6c.86 6.899 4.2 12.612 10.02 17.139 6.04 4.527 13.48 6.791 22.32 6.791 8.62 0 15.3-1.725 20.05-5.174 4.95-3.45 7.43-7.869 7.43-13.259 0-5.82-3.02-10.132-9.05-12.934-5.82-3.019-15.2-6.252-28.13-9.702-13.37-3.233-24.37-6.575-32.99-10.024-8.41-3.449-15.74-8.731-21.99-15.845-6.03-7.114-9.05-16.708-9.05-28.78 0-9.917 2.8-18.971 8.41-27.164 5.82-8.192 14.01-14.659 24.57-19.402 10.78-4.743 23.39-7.114 37.84-7.114 21.34 0 38.37 5.39 51.09 16.169 12.72 10.563 19.72 24.899 21.02 43.008h-43.33c-.65-7.114-3.67-12.719-9.06-16.815-5.17-4.312-12.18-6.468-21.02-6.468-8.19 0-14.55 1.509-19.08 4.527-4.31 3.019-6.46 7.222-6.46 12.612 0 6.036 3.01 10.671 9.05 13.905 6.04 3.018 15.41 6.144 28.13 9.378 12.94 3.233 23.61 6.575 32.02 10.024 8.41 3.449 15.63 8.839 21.66 16.169 6.26 7.114 9.49 16.599 9.7 28.456 0 10.348-2.91 19.618-8.73 27.81-5.6 8.192-13.79 14.66-24.57 19.403-10.57 4.527-22.96 6.79-37.19 6.79Zm160.37-144.87v86.664c0 6.036 1.4 10.455 4.2 13.258 3.02 2.587 7.98 3.88 14.88 3.88h21.01v38.158h-28.45c-38.16 0-57.24-18.54-57.24-55.62v-86.34h-21.34v-37.188h21.34V83.176h45.6v44.301h40.09v37.188h-40.09Zm61.02 51.739c0-18.108 3.55-34.169 10.67-48.182 7.33-14.013 17.13-24.792 29.42-32.337 12.51-7.545 26.41-11.318 41.72-11.318 13.36 0 25.01 2.695 34.92 8.084 10.13 5.39 18.22 12.181 24.25 20.373v-25.547h45.6v179.148h-45.6v-26.193c-5.82 8.408-13.9 15.414-24.25 21.019-10.13 5.39-21.88 8.084-35.25 8.084-15.09 0-28.88-3.88-41.39-11.641-12.29-7.761-22.09-18.648-29.42-32.661-7.12-14.228-10.67-30.504-10.67-48.829Zm140.98.647c0-10.994-2.15-20.372-6.46-28.133-4.31-7.977-10.13-14.013-17.46-18.109-7.33-4.311-15.2-6.467-23.61-6.467s-16.17 2.048-23.28 6.144c-7.12 4.096-12.94 10.132-17.47 18.109-4.31 7.76-6.46 17.03-6.46 27.809s2.15 20.265 6.46 28.457c4.53 7.977 10.35 14.121 17.47 18.432 7.33 4.312 15.09 6.468 23.28 6.468 8.41 0 16.28-2.048 23.61-6.144 7.33-4.312 13.15-10.348 17.46-18.109 4.31-7.977 6.46-17.462 6.46-28.457Zm158.37 92.484c-14.66 0-27.81-2.587-39.45-7.761-11.64-5.389-20.91-12.611-27.81-21.665-6.68-9.055-10.35-19.079-10.99-30.074h45.59c.86 6.899 4.2 12.612 10.02 17.139 6.04 4.527 13.48 6.791 22.32 6.791 8.62 0 15.3-1.725 20.05-5.174 4.95-3.45 7.43-7.869 7.43-13.259 0-5.82-3.01-10.132-9.05-12.934-5.82-3.019-15.2-6.252-28.13-9.702-13.37-3.233-24.36-6.575-32.99-10.024-8.41-3.449-15.73-8.731-21.99-15.845-6.03-7.114-9.05-16.708-9.05-28.78 0-9.917 2.8-18.971 8.41-27.164 5.82-8.192 14.01-14.659 24.57-19.402 10.78-4.743 23.39-7.114 37.84-7.114 21.34 0 38.37 5.39 51.09 16.169 12.72 10.563 19.73 24.899 21.02 43.008h-43.33c-.65-7.114-3.67-12.719-9.06-16.815-5.17-4.312-12.18-6.468-21.02-6.468-8.19 0-14.55 1.509-19.08 4.527-4.31 3.019-6.46 7.222-6.46 12.612 0 6.036 3.02 10.671 9.05 13.905 6.04 3.018 15.42 6.144 28.14 9.378 12.93 3.233 23.6 6.575 32.01 10.024 8.41 3.449 15.63 8.839 21.66 16.169 6.26 7.114 9.49 16.599 9.71 28.456 0 10.348-2.91 19.618-8.74 27.81-5.6 8.192-13.79 14.66-24.57 19.403-10.56 4.527-22.96 6.79-37.19 6.79Zm130.62-203.4c-7.98 0-14.66-2.479-20.05-7.438-5.18-5.174-7.76-11.533-7.76-19.079 0-7.545 2.58-13.797 7.76-18.755 5.39-5.174 12.07-7.761 20.05-7.761 7.97 0 14.55 2.587 19.72 7.761 5.39 4.958 8.09 11.21 8.09 18.755 0 7.546-2.7 13.905-8.09 19.08-5.17 4.958-11.75 7.437-19.72 7.437Zm22.31 21.342v179.148h-45.27V127.477h45.27Z"/></svg>